# xmcd
# 
# Track frame offsets:
#     150
#     25425
#     46475
# 
# Disc length: 835
# 
# Revision: 3
# Processed by: cddbd v1.5.2PL0 Copyright (c) Steve Scherf et al.
# Submitted via: fre:ac v1.0.17
# 
DISCID=21034103
DTITLE=Mr.Children - シングル
DYEAR=2007
DGENRE=
TTITLE0=旅立ちの唄
TTITLE1=羊、吠える
TTITLE2=いつでも微笑みを
EXTD=
EXTT0=
EXTT1=
EXTT2=
PLAYORDER=
